<svg width="30" height="30" viewBox="0 0 30 30" fill="none" xmlns="http://www.w3.org/2000/svg">
<g clip-path="url(#clip0_70_288)" filter="url(#filter0_d_70_288)">
<path d="M13 20.25C13 20.5467 12.912 20.8367 12.7472 21.0834C12.5824 21.33 12.3481 21.5223 12.074 21.6358C11.7999 21.7494 11.4983 21.7791 11.2074 21.7212C10.9164 21.6633 10.6491 21.5204 10.4393 21.3107C10.2296 21.1009 10.0867 20.8336 10.0288 20.5426C9.97094 20.2517 10.0006 19.9501 10.1142 19.676C10.2277 19.4019 10.42 19.1676 10.6666 19.0028C10.9133 18.838 11.2033 18.75 11.5 18.75C11.8978 18.75 12.2794 18.908 12.5607 19.1893C12.842 19.4706 13 19.8522 13 20.25ZM21.25 18.75C20.9533 18.75 20.6633 18.838 20.4166 19.0028C20.17 19.1676 19.9777 19.4019 19.8642 19.676C19.7506 19.9501 19.7209 20.2517 19.7788 20.5426C19.8367 20.8336 19.9796 21.1009 20.1893 21.3107C20.3991 21.5204 20.6664 21.6633 20.9574 21.7212C21.2483 21.7791 21.5499 21.7494 21.824 21.6358C22.0981 21.5223 22.3324 21.33 22.4972 21.0834C22.662 20.8367 22.75 20.5467 22.75 20.25C22.75 19.8522 22.592 19.4706 22.3107 19.1893C22.0294 18.908 21.6478 18.75 21.25 18.75ZM25.3844 6.3C25.314 6.20739 25.2233 6.13217 25.1193 6.08016C25.0153 6.02814 24.9007 6.00072 24.7844 6H8.52812L7.76875 3.3375C7.67769 3.0247 7.48788 2.74976 7.22766 2.55375C6.96744 2.35774 6.65078 2.25118 6.325 2.25H4.75C4.55109 2.25 4.36032 2.32902 4.21967 2.46967C4.07902 2.61032 4 2.80109 4 3C4 3.19891 4.07902 3.38968 4.21967 3.53033C4.36032 3.67098 4.55109 3.75 4.75 3.75H6.325L7.24375 6.94687V6.96563L9.71875 15.6188C9.85466 16.0883 10.1392 16.5012 10.5297 16.7953C10.9202 17.0894 11.3955 17.249 11.8844 17.25H20.8656C21.3545 17.249 21.8298 17.0894 22.2203 16.7953C22.6108 16.5012 22.8953 16.0883 23.0312 15.6188L25.5062 6.95625C25.538 6.84488 25.5435 6.72767 25.5223 6.61382C25.5012 6.49996 25.454 6.39255 25.3844 6.3Z" fill="white"/>
</g>
<defs>
<filter id="filter0_d_70_288" x="0" y="0" width="32" height="32" filterUnits="userSpaceOnUse" color-interpolation-filters="sRGB">
<feFlood flood-opacity="0" result="BackgroundImageFix"/>
<feColorMatrix in="SourceAlpha" type="matrix" values="0 0 0 0 0 0 0 0 0 0 0 0 0 0 0 0 0 0 127 0" result="hardAlpha"/>
<feOffset dy="4"/>
<feGaussianBlur stdDeviation="2"/>
<feComposite in2="hardAlpha" operator="out"/>
<feColorMatrix type="matrix" values="0 0 0 0 0 0 0 0 0 0 0 0 0 0 0 0 0 0 0.25 0"/>
<feBlend mode="normal" in2="BackgroundImageFix" result="effect1_dropShadow_70_288"/>
<feBlend mode="normal" in="SourceGraphic" in2="effect1_dropShadow_70_288" result="shape"/>
</filter>
<clipPath id="clip0_70_288">
<rect width="24" height="24" fill="white" transform="translate(4)"/>
</clipPath>
</defs>
</svg>
