<svg width="28" height="28" viewBox="0 0 28 28" fill="none" xmlns="http://www.w3.org/2000/svg">
<path fill-rule="evenodd" clip-rule="evenodd" d="M7.66976 5.05855C8.31888 4.08485 9.4117 3.5 10.5819 3.5H17.4177C18.588 3.5 19.6808 4.08485 20.3299 5.05855L21.2779 6.48048C21.4943 6.80505 21.8585 7 22.2486 7H23.3332C25.2662 7 26.8332 8.56701 26.8332 10.5V16.5325C26.4682 16.4036 26.0755 16.3333 25.6665 16.3333C25.6665 14.4003 24.0996 12.8333 22.1665 12.8333C20.2335 12.8333 18.6665 14.4003 18.6665 16.3333C18.617 16.3333 18.5677 16.3344 18.5187 16.3364C18.6152 15.9626 18.6665 15.5706 18.6665 15.1667C18.6665 12.5894 16.5771 10.5 13.9998 10.5C11.4225 10.5 9.33317 12.5894 9.33317 15.1667C9.33317 17.7439 11.4225 19.8333 13.9998 19.8333C14.4037 19.8333 14.7957 19.782 15.1695 19.6855C15.1676 19.7345 15.1665 19.7839 15.1665 19.8333C15.1665 21.7664 16.7335 23.3333 18.6665 23.3333C18.6665 23.7424 18.7367 24.1351 18.8657 24.5H4.6665C2.73351 24.5 1.1665 22.9331 1.1665 21V10.5C1.1665 8.56701 2.73351 7 4.6665 7H5.75107C6.14116 7 6.50543 6.80505 6.7218 6.48048L7.66976 5.05855ZM22.1665 15.1667C22.8109 15.1667 23.3332 15.689 23.3332 16.3333V18.6667H25.6665C26.3109 18.6667 26.8332 19.189 26.8332 19.8333C26.8332 20.4777 26.3109 21 25.6665 21H23.3332V23.3333C23.3332 23.9777 22.8109 24.5 22.1665 24.5C21.5222 24.5 20.9998 23.9777 20.9998 23.3333V21H18.6665C18.0222 21 17.4998 20.4777 17.4998 19.8333C17.4998 19.189 18.0222 18.6667 18.6665 18.6667H20.9998V16.3333C20.9998 15.689 21.5222 15.1667 22.1665 15.1667Z" fill="#656565"/>
</svg>
