<svg width="17" height="17" viewBox="0 0 17 17" fill="none" xmlns="http://www.w3.org/2000/svg">
<g clip-path="url(#clip0_57_1469)">
<path d="M14.1667 6.375H7.79167C7.00926 6.375 6.375 7.00926 6.375 7.79167V14.1667C6.375 14.9491 7.00926 15.5833 7.79167 15.5833H14.1667C14.9491 15.5833 15.5833 14.9491 15.5833 14.1667V7.79167C15.5833 7.00926 14.9491 6.375 14.1667 6.375Z" stroke="#103E95" stroke-width="1.5" stroke-linecap="round" stroke-linejoin="round"/>
<path d="M3.54199 10.6248H2.83366C2.45794 10.6248 2.0976 10.4756 1.83192 10.2099C1.56625 9.94423 1.41699 9.58389 1.41699 9.20817V2.83317C1.41699 2.45745 1.56625 2.09711 1.83192 1.83144C2.0976 1.56576 2.45794 1.4165 2.83366 1.4165H9.20866C9.58438 1.4165 9.94472 1.56576 10.2104 1.83144C10.4761 2.09711 10.6253 2.45745 10.6253 2.83317V3.5415" stroke="#103E95" stroke-width="1.5" stroke-linecap="round" stroke-linejoin="round"/>
</g>
<defs>
<clipPath id="clip0_57_1469">
<rect width="17" height="17" fill="white"/>
</clipPath>
</defs>
</svg>
