<svg width="13" height="13" viewBox="0 0 13 13" fill="none" xmlns="http://www.w3.org/2000/svg">
<g clip-path="url(#clip0_51_264)">
<path d="M5.98532 2.38232H2.38238C2.10936 2.38232 1.84753 2.49078 1.65447 2.68383C1.46142 2.87688 1.35297 3.13872 1.35297 3.41174V10.6176C1.35297 10.8906 1.46142 11.1525 1.65447 11.3455C1.84753 11.5386 2.10936 11.647 2.38238 11.647H9.58826C9.86128 11.647 10.1231 11.5386 10.3162 11.3455C10.5092 11.1525 10.6177 10.8906 10.6177 10.6176V7.01468" stroke="#103E95" stroke-width="1.2" stroke-linecap="round" stroke-linejoin="round"/>
<path d="M9.84564 1.6102C10.0504 1.40544 10.3281 1.29041 10.6177 1.29041C10.9073 1.29041 11.185 1.40544 11.3898 1.6102C11.5945 1.81497 11.7096 2.09268 11.7096 2.38226C11.7096 2.67184 11.5945 2.94956 11.3898 3.15432L6.50005 8.04403L4.44122 8.55873L4.95593 6.49991L9.84564 1.6102Z" stroke="#103E95" stroke-width="1.2" stroke-linecap="round" stroke-linejoin="round"/>
</g>
<defs>
<clipPath id="clip0_51_264">
<rect width="12.3529" height="12.3529" fill="white" transform="translate(0.323547 0.323486)"/>
</clipPath>
</defs>
</svg>
