<svg width="13" height="13" viewBox="0 0 13 13" fill="none" xmlns="http://www.w3.org/2000/svg">
<path d="M6.5 2.47607C6.5 3.15703 6.01521 3.71417 5.41667 3.71417H2.70833H1.08333C0.485008 3.71417 0 4.27131 0 4.95226V9.90465V11.7618C0 12.4427 0.485025 12.9999 1.08333 12.9999H11.9167C12.5152 12.9999 13 12.4427 13 11.7618V9.90465V3.71417C13 3.03322 12.5152 2.47607 11.9167 2.47607H6.5Z" fill="#2980B9"/>
<path d="M1.08333 0C0.485008 0 0 0.554295 0 1.2381V4.33333H5.41667V4.95238H13V1.85714C13 1.17334 12.5152 0.619048 11.9167 0.619048H6.34779C6.16038 0.249538 5.8175 0 5.41667 0H1.08333Z" fill="#2980B9"/>
<path d="M6.5 1.85742C6.5 2.53837 6.01521 3.09552 5.41667 3.09552H2.70833H1.08333C0.485008 3.09552 0 3.65266 0 4.33361V9.28599V11.1431C0 11.8241 0.485025 12.3812 1.08333 12.3812H11.9167C12.5152 12.3812 13 11.8241 13 11.1431V9.28599V3.09552C13 2.41456 12.5152 1.85742 11.9167 1.85742H6.5Z" fill="#3498DB"/>
</svg>
