<svg width="153" height="102" viewBox="0 0 153 102" fill="none" xmlns="http://www.w3.org/2000/svg">
<g clip-path="url(#clip0_70_241)">
<path d="M79.373 45.7779L79.8949 46.4758C79.56 46.8503 79.2422 47.1737 78.9408 47.4463C79.1505 47.6894 79.4237 48.0245 79.7605 48.4499C80.0269 48.7842 80.2555 49.093 80.4468 49.3755H79.373L78.3517 48.0461C77.7099 48.6985 77.1886 49.1239 76.787 49.323C76.3855 49.5215 75.9613 49.6203 75.5145 49.6203C74.9211 49.6203 74.445 49.4056 74.085 48.9756C73.7256 48.5456 73.5459 48.0091 73.5459 47.3652C73.5459 46.8804 73.6669 46.394 73.9096 45.9061C74.1516 45.4189 74.6466 44.8021 75.3929 44.0571C74.9712 43.414 74.6998 42.9384 74.5794 42.6327C74.4596 42.3262 74.3991 42.0344 74.3991 41.7564C74.3991 41.2716 74.5476 40.8709 74.8441 40.5536C75.1863 40.1838 75.6117 39.9985 76.1214 39.9985C76.4423 39.9985 76.7357 40.0796 77.0009 40.2433C77.2662 40.4069 77.4691 40.6262 77.6085 40.901C77.7478 41.1766 77.8175 41.4685 77.8175 41.7773C77.8175 42.1038 77.727 42.4513 77.5449 42.8187C77.3634 43.187 77.0046 43.6572 76.4698 44.2308L77.6378 45.7779L78.4024 46.7584C78.8143 46.3762 79.1376 46.0497 79.373 45.7779ZM75.9008 44.7905C75.2462 45.4127 74.8178 45.9076 74.6149 46.2759C74.412 46.6441 74.3105 46.9846 74.3105 47.298C74.3105 47.6686 74.4346 47.9959 74.6827 48.28C74.9308 48.5641 75.2352 48.707 75.5952 48.707C75.8678 48.707 76.1355 48.6367 76.3977 48.4954C76.8102 48.27 77.2833 47.8886 77.8163 47.3497L76.6018 45.7686C76.3928 45.4915 76.1587 45.1657 75.9008 44.7905ZM75.9943 43.5028C76.3684 43.1368 76.6501 42.7778 76.8384 42.425C76.9716 42.1741 77.0376 41.951 77.0376 41.7572C77.0376 41.5325 76.9508 41.3388 76.7779 41.1751C76.6049 41.0122 76.3745 40.9304 76.0878 40.9304C75.8146 40.9304 75.5922 41.0145 75.421 41.182C75.2493 41.3496 75.1637 41.548 75.1637 41.7773C75.1637 41.9541 75.1992 42.1185 75.2688 42.2737C75.4406 42.6473 75.6826 43.0581 75.9943 43.5028Z" fill="white"/>
<path d="M92.8004 35.9011H71.8257C69.6426 35.9011 67.8665 33.6569 67.8665 30.8992V13.7263C67.8665 10.9686 69.6426 8.7251 71.8257 8.7251H92.8004C93.205 8.7251 93.5332 9.13968 93.5332 9.65076C93.5332 10.1618 93.205 10.5764 92.8004 10.5764H71.8257C70.4505 10.5764 69.3321 11.9892 69.3321 13.7263V30.8992C69.3321 32.6362 70.4505 34.0498 71.8257 34.0498H92.8004C93.205 34.0498 93.5332 34.4644 93.5332 34.9755C93.5332 35.4866 93.205 35.9011 92.8004 35.9011Z" fill="white"/>
<path d="M88.4298 23.1619H68.5993C68.1947 23.1619 67.8665 22.7473 67.8665 22.2362C67.8665 21.7251 68.1947 21.3105 68.5993 21.3105H88.4298C88.8344 21.3105 89.1626 21.7251 89.1626 22.2362C89.1626 22.7473 88.8344 23.1619 88.4298 23.1619Z" fill="white"/>
<path d="M145.905 34.8306H100.868C100.471 34.8306 100.148 34.4237 100.148 33.9219V9.49656C100.148 8.99475 100.47 8.58789 100.868 8.58789H145.905C148.081 8.58789 149.85 10.8237 149.85 13.5721V29.8464C149.85 32.5948 148.08 34.8306 145.905 34.8306ZM101.587 33.0132H145.905C147.287 33.0132 148.412 31.5927 148.412 29.8464V13.5721C148.412 11.8258 147.287 10.4052 145.905 10.4052H101.587V33.0132Z" fill="white"/>
<path d="M68.5987 45.6319H4.06178C3.85948 45.6319 3.69507 45.424 3.69507 45.1682C3.69507 44.9125 3.85948 44.7046 4.06178 44.7046H68.5993C68.8017 44.7046 68.9661 44.9125 68.9661 45.1682C68.9661 45.424 68.801 45.6319 68.5987 45.6319Z" fill="white"/>
<path d="M149.27 45.6319H84.7334C84.5311 45.6319 84.3667 45.424 84.3667 45.1682C84.3667 44.9125 84.5311 44.7046 84.7334 44.7046H149.271C149.473 44.7046 149.638 44.9125 149.638 45.1682C149.638 45.424 149.473 45.6319 149.27 45.6319Z" fill="white"/>
<path d="M36.33 81.8943C35.9254 81.8943 35.5972 81.4797 35.5972 80.9687V55.6439C35.5972 55.1328 35.9254 54.7183 36.33 54.7183C36.7346 54.7183 37.0628 55.1328 37.0628 55.6439V80.9687C37.0634 81.4797 36.7346 81.8943 36.33 81.8943Z" fill="white"/>
<path d="M36.3301 69.2309C36.0105 69.2309 35.7165 68.9645 35.6254 68.5561C35.5154 68.0644 35.7422 67.5525 36.1315 67.4143L71.738 54.7168C72.1273 54.5763 72.5319 54.8635 72.6419 55.3561C72.7519 55.8478 72.5252 56.3597 72.1358 56.4979L36.5294 69.1962C36.4627 69.2201 36.3961 69.2309 36.3301 69.2309Z" fill="white"/>
<path d="M72.0305 81.7657C71.912 81.7657 71.7922 81.7294 71.6809 81.653L50.9709 67.4053C50.1165 66.817 49.6532 65.6929 49.7614 64.4716C49.8702 63.2502 50.5192 62.2844 51.455 61.9501L55.3115 60.5759C55.7021 60.4346 56.1061 60.7234 56.2155 61.2152C56.3255 61.7077 56.0988 62.2188 55.7094 62.357L51.8535 63.7312C51.3248 63.9203 51.2331 64.5032 51.2178 64.6777C51.2025 64.8522 51.1891 65.4474 51.6719 65.7794L72.3814 80.0271C72.7371 80.271 72.8679 80.8338 72.6741 81.2824C72.5415 81.5904 72.2903 81.7657 72.0305 81.7657Z" fill="white"/>
<path d="M80.6998 81.7658C80.2952 81.7658 79.967 81.3512 79.967 80.8402V58.2152C79.967 57.7041 80.2952 57.2896 80.6998 57.2896C81.1045 57.2896 81.4327 57.7041 81.4327 58.2152V80.8402C81.4327 81.3512 81.1045 81.7658 80.6998 81.7658Z" fill="white"/>
<path d="M92.8004 81.7657C92.3958 81.7657 92.0676 81.3511 92.0676 80.8401V59.4395C92.0676 57.8052 92.7014 56.2719 93.7624 55.3378C94.8235 54.4021 96.1821 54.1821 97.3966 54.7472L145.285 79.7299C146.035 80.0788 146.87 79.9422 147.547 79.3447C148.225 78.7479 148.615 77.806 148.615 76.7607V54.6522C148.615 54.1411 148.943 53.7266 149.347 53.7266C149.752 53.7266 150.08 54.1411 150.08 54.6522V76.7599C150.08 78.3943 149.446 79.9283 148.385 80.8625C147.324 81.7958 145.966 82.0182 144.752 81.4531L96.8636 56.4703C96.1131 56.1206 95.2794 56.2573 94.601 56.8556C93.9232 57.4531 93.5339 58.395 93.5339 59.4388V80.8393C93.5333 81.3511 93.205 81.7657 92.8004 81.7657Z" fill="white"/>
<path fill-rule="evenodd" clip-rule="evenodd" d="M80.6996 60.8633C82.0522 60.8633 83.1578 59.4659 83.1578 57.7582C83.1578 56.0497 82.0522 54.6523 80.6996 54.6523C79.3477 54.6523 78.2415 56.0497 78.2415 57.7582C78.2415 59.4659 79.3477 60.8633 80.6996 60.8633Z" fill="white"/>
<path d="M60.5316 35.9012C60.3372 35.9012 60.1429 35.804 59.9986 35.611L41.8464 11.3254C41.377 10.7332 40.7487 10.4098 40.0489 10.4221C39.3644 10.4391 38.7312 10.7981 38.2661 11.4335L35.1283 15.7205C34.3808 16.7411 33.321 17.3271 32.2202 17.3271H32.2196C31.1189 17.3271 30.0591 16.7411 29.3122 15.719L26.2477 11.5292C25.7832 10.8938 25.15 10.5341 24.4649 10.5171C23.7877 10.5078 23.1362 10.8274 22.6521 11.4389L4.5922 35.6094C4.31411 35.9808 3.85083 35.9977 3.55624 35.6472C3.26226 35.296 3.24881 34.7108 3.52629 34.3387L21.6015 10.1504C22.385 9.16062 23.4088 8.64259 24.4942 8.66807C25.5815 8.69509 26.5869 9.26562 27.3246 10.2747L30.3891 14.4644C30.8665 15.1176 31.5168 15.4773 32.2202 15.4773H32.2209C32.9243 15.4773 33.5746 15.1183 34.0526 14.4652L37.1904 10.1781C37.9287 9.16989 38.9335 8.60013 40.0202 8.57311C41.1173 8.54841 42.1294 9.06643 42.8977 10.0369L61.0646 34.341C61.3426 34.7123 61.3292 35.2983 61.0352 35.6496C60.8928 35.8179 60.7119 35.9012 60.5316 35.9012Z" fill="white"/>
<path d="M28.7371 81.7431H7.28749C5.11411 81.7431 3.34595 79.5088 3.34595 76.7635V75.7429C3.34595 75.2442 3.66621 74.8388 4.06103 74.8388C4.45586 74.8388 4.77612 75.2434 4.77612 75.7429V76.7635C4.77612 78.5129 5.90254 79.935 7.28687 79.935H28.7364C30.1214 79.935 31.2478 78.5121 31.2478 76.7635V72.3815C31.2478 70.6321 30.1214 69.2085 28.7364 69.2085H7.28749C5.11411 69.2085 3.34595 66.9742 3.34595 64.2289V59.4354C3.34595 56.6893 5.11411 54.4551 7.28749 54.4551H28.7371C30.911 54.4551 32.6792 56.6893 32.6792 59.4354V59.9704C32.6792 60.4691 32.3589 60.8737 31.9641 60.8737C31.5693 60.8737 31.249 60.4691 31.249 59.9704V59.4354C31.249 57.686 30.1226 56.2624 28.7377 56.2624H7.28749C5.90315 56.2624 4.77673 57.686 4.77673 59.4354V64.2289C4.77673 65.9783 5.90315 67.4012 7.28749 67.4012H28.7371C30.911 67.4012 32.6792 69.6354 32.6792 72.3815V76.7635C32.6786 79.5096 30.9104 81.7431 28.7371 81.7431Z" fill="white"/>
</g>
<defs>
<clipPath id="clip0_70_241">
<rect width="153" height="100.576" fill="white" transform="translate(0 0.898438)"/>
</clipPath>
</defs>
</svg>
