<svg width="11" height="11" viewBox="0 0 11 11" fill="none" xmlns="http://www.w3.org/2000/svg">
<g clip-path="url(#clip0_0_3315)">
<path d="M2.63558 2.75C2.75714 2.75 2.87372 2.70171 2.95967 2.61576C3.04562 2.5298 3.09391 2.41322 3.09391 2.29167V1.03125C3.09391 1.00086 3.10598 0.971716 3.12747 0.950227C3.14896 0.928739 3.17811 0.916667 3.2085 0.916667H7.14375L8.13558 1.9085V2.29167C8.13558 2.41322 8.18387 2.5298 8.26982 2.61576C8.35578 2.70171 8.47236 2.75 8.59391 2.75C8.71547 2.75 8.83205 2.70171 8.918 2.61576C9.00396 2.5298 9.05225 2.41322 9.05225 2.29167V1.71875C9.05222 1.5972 9.00391 1.48064 8.91795 1.39471L7.79183 0.2695C7.61983 0.0976681 7.38687 0.000795872 7.14375 0L3.09391 0C2.8508 0 2.61764 0.0965771 2.44573 0.268485C2.27382 0.440394 2.17725 0.673552 2.17725 0.916667V2.29167C2.17725 2.41322 2.22553 2.5298 2.31149 2.61576C2.39744 2.70171 2.51402 2.75 2.63558 2.75Z" fill="#757575"/>
<path d="M9.85417 3.2085H1.14583C0.841939 3.2085 0.550492 3.32922 0.335607 3.5441C0.120721 3.75899 0 4.05044 0 4.35433L0 6.41683C0 6.72072 0.120721 7.01217 0.335607 7.22706C0.550492 7.44194 0.841939 7.56266 1.14583 7.56266H2.29167V10.4272C2.29167 10.5025 2.30649 10.577 2.33528 10.6465C2.36407 10.716 2.40627 10.7792 2.45947 10.8324C2.51267 10.8856 2.57583 10.9278 2.64534 10.9566C2.71485 10.9853 2.78935 11.0002 2.86458 11.0002H8.36458C8.51649 11 8.66215 10.9396 8.76956 10.8322C8.87698 10.7248 8.93738 10.5792 8.9375 10.4272V7.56266H9.85417C10.0046 7.56266 10.1536 7.53302 10.2927 7.47544C10.4317 7.41786 10.558 7.33346 10.6644 7.22706C10.7708 7.12066 10.8552 6.99434 10.9128 6.85532C10.9704 6.7163 11 6.5673 11 6.41683V4.35433C11 4.20386 10.9704 4.05486 10.9128 3.91584C10.8552 3.77682 10.7708 3.6505 10.6644 3.5441C10.558 3.4377 10.4317 3.3533 10.2927 3.29572C10.1536 3.23813 10.0046 3.2085 9.85417 3.2085ZM1.60417 5.271C1.51352 5.271 1.4249 5.24412 1.34953 5.19375C1.27416 5.14339 1.21541 5.07181 1.18072 4.98806C1.14603 4.90431 1.13696 4.81215 1.15464 4.72325C1.17233 4.63434 1.21598 4.55267 1.28008 4.48857C1.34418 4.42447 1.42584 4.38082 1.51475 4.36314C1.60366 4.34545 1.69581 4.35453 1.77956 4.38922C1.86331 4.42391 1.93489 4.48265 1.98526 4.55803C2.03562 4.6334 2.0625 4.72201 2.0625 4.81266C2.0625 4.93422 2.01421 5.0508 1.92826 5.13675C1.8423 5.22271 1.72572 5.271 1.60417 5.271ZM8.02083 9.85433C8.02083 9.91511 7.99669 9.9734 7.95371 10.0164C7.91074 10.0594 7.85245 10.0835 7.79167 10.0835H3.4375C3.37672 10.0835 3.31843 10.0594 3.27545 10.0164C3.23248 9.9734 3.20833 9.91511 3.20833 9.85433V5.71008C3.20833 5.6493 3.23248 5.59101 3.27545 5.54803C3.31843 5.50506 3.37672 5.48091 3.4375 5.48091H7.79167C7.85245 5.48091 7.91074 5.50506 7.95371 5.54803C7.99669 5.59101 8.02083 5.6493 8.02083 5.71008V9.85433Z" fill="#757575"/>
<path d="M6.87484 6.76025H4.354C4.26284 6.76025 4.1754 6.79647 4.11094 6.86094C4.04647 6.9254 4.01025 7.01284 4.01025 7.104C4.01025 7.19517 4.04647 7.28261 4.11094 7.34707C4.1754 7.41154 4.26284 7.44775 4.354 7.44775H6.87484C6.96601 7.44775 7.05344 7.41154 7.1179 7.34707C7.18237 7.28261 7.21859 7.19517 7.21859 7.104C7.21859 7.01284 7.18237 6.9254 7.1179 6.86094C7.05344 6.79647 6.96601 6.76025 6.87484 6.76025Z" fill="#757575"/>
<path d="M6.07275 8.36475H4.354C4.26284 8.36475 4.1754 8.40096 4.11094 8.46543C4.04647 8.52989 4.01025 8.61733 4.01025 8.7085C4.01025 8.79966 4.04647 8.8871 4.11094 8.95156C4.1754 9.01603 4.26284 9.05225 4.354 9.05225H6.07275C6.16392 9.05225 6.25136 9.01603 6.31582 8.95156C6.38029 8.8871 6.4165 8.79966 6.4165 8.7085C6.4165 8.61733 6.38029 8.52989 6.31582 8.46543C6.25136 8.40096 6.16392 8.36475 6.07275 8.36475Z" fill="#757575"/>
</g>
<defs>
<clipPath id="clip0_0_3315">
<rect width="11" height="11" fill="white"/>
</clipPath>
</defs>
</svg>
