<svg width="13" height="13" viewBox="0 0 13 13" fill="none" xmlns="http://www.w3.org/2000/svg">
<path d="M11.5968 2.18409H9.25068V1.35933C9.2504 1.09836 9.1466 0.848154 8.96207 0.663618C8.77753 0.479082 8.52733 0.375285 8.26635 0.375H4.73276C4.47179 0.375285 4.22159 0.479082 4.03705 0.663618C3.85251 0.848154 3.74872 1.09836 3.74843 1.35933V2.18409H1.40232C1.25729 2.18409 1.11819 2.24171 1.01564 2.34426C0.913083 2.44681 0.855469 2.58591 0.855469 2.73094C0.855469 2.87597 0.913083 3.01507 1.01564 3.11762C1.11819 3.22018 1.25729 3.27779 1.40232 3.27779H11.5968C11.7418 3.27779 11.8809 3.22018 11.9835 3.11762C12.086 3.01507 12.1436 2.87597 12.1436 2.73094C12.1436 2.58591 12.086 2.44681 11.9835 2.34426C11.8809 2.24171 11.7418 2.18409 11.5968 2.18409ZM4.84213 2.18409V1.4687H8.15698V2.18409H4.84213Z" fill="#FF0B0B"/>
<path d="M10.6663 3.97363C10.5945 3.97363 10.5234 3.98777 10.4571 4.01525C10.3907 4.04273 10.3304 4.08301 10.2796 4.13379C10.2289 4.18457 10.1886 4.24486 10.1611 4.31121C10.1336 4.37756 10.1195 4.44867 10.1195 4.52048V10.2423C10.1097 10.5928 9.96152 10.9251 9.70729 11.1664C9.45305 11.4078 9.11352 11.5386 8.76305 11.5302H4.2353C3.88483 11.5386 3.5453 11.4078 3.29106 11.1664C3.03683 10.9251 2.8886 10.5928 2.87886 10.2423V4.52048C2.87886 4.37545 2.82124 4.23636 2.71869 4.1338C2.61613 4.03125 2.47704 3.97363 2.33201 3.97363C2.18697 3.97363 2.04788 4.03125 1.94532 4.1338C1.84277 4.23636 1.78516 4.37545 1.78516 4.52048V10.2423C1.79507 10.8828 2.05857 11.4932 2.51788 11.9396C2.97719 12.3861 3.59482 12.6322 4.2353 12.6239H8.76305C9.40353 12.6322 10.0212 12.3861 10.4805 11.9396C10.9398 11.4932 11.2033 10.8828 11.2132 10.2423V4.52048C11.2132 4.44867 11.1991 4.37756 11.1716 4.31121C11.1441 4.24486 11.1038 4.18457 11.053 4.13379C11.0023 4.08301 10.942 4.04273 10.8756 4.01525C10.8093 3.98777 10.7382 3.97363 10.6663 3.97363Z" fill="#FF0B0B"/>
<path d="M5.47261 9.74061V5.1616C5.47261 5.01656 5.41499 4.87747 5.31244 4.77491C5.20988 4.67236 5.07079 4.61475 4.92576 4.61475C4.78072 4.61475 4.64163 4.67236 4.53907 4.77491C4.43652 4.87747 4.37891 5.01656 4.37891 5.1616V9.74061C4.37891 9.88564 4.43652 10.0247 4.53907 10.1273C4.64163 10.2298 4.78072 10.2875 4.92576 10.2875C5.07079 10.2875 5.20988 10.2298 5.31244 10.1273C5.41499 10.0247 5.47261 9.88564 5.47261 9.74061Z" fill="#FF0B0B"/>
<path d="M8.62007 9.74061V5.1616C8.62007 5.01656 8.56245 4.87747 8.4599 4.77491C8.35734 4.67236 8.21825 4.61475 8.07322 4.61475C7.92818 4.61475 7.78909 4.67236 7.68654 4.77491C7.58398 4.87747 7.52637 5.01656 7.52637 5.1616V9.74061C7.52637 9.88564 7.58398 10.0247 7.68654 10.1273C7.78909 10.2298 7.92818 10.2875 8.07322 10.2875C8.21825 10.2875 8.35734 10.2298 8.4599 10.1273C8.56245 10.0247 8.62007 9.88564 8.62007 9.74061Z" fill="#FF0B0B"/>
</svg>
