<svg width="11" height="11" viewBox="0 0 11 11" fill="none" xmlns="http://www.w3.org/2000/svg">
<path d="M10.0152 1.67761H7.93708V0.94707C7.93683 0.715912 7.84489 0.494294 7.68143 0.33084C7.51798 0.167387 7.29636 0.0754476 7.0652 0.0751953H3.93531C3.70415 0.0754476 3.48253 0.167387 3.31908 0.33084C3.15562 0.494294 3.06368 0.715912 3.06343 0.94707V1.67761H0.985352C0.856887 1.67761 0.733685 1.72864 0.642847 1.81948C0.552009 1.91031 0.500977 2.03352 0.500977 2.16198C0.500977 2.29045 0.552009 2.41365 0.642847 2.50449C0.733685 2.59532 0.856887 2.64636 0.985352 2.64636H10.0152C10.1436 2.64636 10.2668 2.59532 10.3577 2.50449C10.4485 2.41365 10.4995 2.29045 10.4995 2.16198C10.4995 2.03352 10.4485 1.91031 10.3577 1.81948C10.2668 1.72864 10.1436 1.67761 10.0152 1.67761ZM4.03218 1.67761V1.04395H6.96833V1.67761H4.03218Z" fill="white"/>
<path d="M9.19077 3.26318C9.12716 3.26318 9.06417 3.2757 9.0054 3.30004C8.94663 3.32439 8.89324 3.36006 8.84826 3.40504C8.80328 3.45002 8.7676 3.50342 8.74326 3.56219C8.71892 3.62096 8.70639 3.68395 8.7064 3.74756V8.81571C8.69776 9.12611 8.56647 9.42044 8.34128 9.63425C8.11609 9.84806 7.81535 9.96392 7.50492 9.95645H3.49445C3.18401 9.96392 2.88327 9.84806 2.65808 9.63425C2.43289 9.42044 2.3016 9.12611 2.29297 8.81571V3.74756C2.29297 3.61909 2.24194 3.49589 2.1511 3.40505C2.06026 3.31422 1.93706 3.26318 1.80859 3.26318C1.68013 3.26318 1.55693 3.31422 1.46609 3.40505C1.37525 3.49589 1.32422 3.61909 1.32422 3.74756V8.81571C1.333 9.383 1.5664 9.92366 1.97324 10.3191C2.38007 10.7146 2.92713 10.9325 3.49445 10.9252H7.50492C8.07223 10.9325 8.61929 10.7146 9.02613 10.3191C9.43297 9.92366 9.66637 9.383 9.67515 8.81571V3.74756C9.67515 3.68395 9.66263 3.62096 9.63829 3.56219C9.61395 3.50342 9.57827 3.45002 9.53329 3.40504C9.48831 3.36006 9.43491 3.32439 9.37614 3.30004C9.31737 3.2757 9.25438 3.26318 9.19077 3.26318Z" fill="white"/>
<path d="M4.59082 8.37082V4.31494C4.59082 4.18648 4.53979 4.06327 4.44895 3.97244C4.35811 3.8816 4.23491 3.83057 4.10645 3.83057C3.97798 3.83057 3.85478 3.8816 3.76394 3.97244C3.6731 4.06327 3.62207 4.18648 3.62207 4.31494V8.37082C3.62207 8.49929 3.6731 8.62249 3.76394 8.71333C3.85478 8.80417 3.97798 8.8552 4.10645 8.8552C4.23491 8.8552 4.35811 8.80417 4.44895 8.71333C4.53979 8.62249 4.59082 8.49929 4.59082 8.37082Z" fill="white"/>
<path d="M7.37793 8.37082V4.31494C7.37793 4.18648 7.3269 4.06327 7.23606 3.97244C7.14522 3.8816 7.02202 3.83057 6.89355 3.83057C6.76509 3.83057 6.64189 3.8816 6.55105 3.97244C6.46021 4.06327 6.40918 4.18648 6.40918 4.31494V8.37082C6.40918 8.49929 6.46021 8.62249 6.55105 8.71333C6.64189 8.80417 6.76509 8.8552 6.89355 8.8552C7.02202 8.8552 7.14522 8.80417 7.23606 8.71333C7.3269 8.62249 7.37793 8.49929 7.37793 8.37082Z" fill="white"/>
</svg>
